<?xml version="1.0" encoding="UTF-8"?>
<svg width="20px" height="21px" viewBox="0 0 20 21" version="1.1" xmlns="http://www.w3.org/2000/svg" xmlns:xlink="http://www.w3.org/1999/xlink">
    <title>group-15</title>
    <g id="Page-1" stroke="none" stroke-width="1" fill="none" fill-rule="evenodd" stroke-linecap="round" stroke-linejoin="round">
        <g id="group-15" transform="translate(1.000000, 1.000000)" stroke="#00C784" stroke-width="0.927">
            <g id="Group">
                <path d="M0.463,1.978 L17.063,18.674 M9.203,2.754 C9.203,3.686 8.448,4.441 7.516,4.441 C6.586,4.441 5.831,3.686 5.831,2.754 C5.831,1.822 6.586,1.067 7.516,1.067 C8.448,1.067 9.203,1.822 9.203,2.754 Z M8.558,4.847 L6.476,4.847 C5.931,4.847 5.489,5.289 5.489,5.835 L5.489,18.14 C5.489,18.352 5.661,18.525 5.872,18.525 L7.132,18.525 C7.345,18.525 7.517,18.352 7.517,18.14 L7.517,11.35 L7.517,18.14 C7.517,18.352 7.69,18.525 7.902,18.525 L9.162,18.525 C9.374,18.525 9.546,18.352 9.546,18.14 L9.546,5.834 C9.546,5.289 9.104,4.847 8.558,4.847 Z M9.725,5.58 L11.055,5.58 C11.703,5.58 12.227,6.103 12.227,6.751 L12.227,13.976 C12.227,14.624 11.703,15.148 11.055,15.148 L9.845,15.148 M10.477,5.202 L10.477,1.05 C10.477,1.05 10.513,0.532 11.119,0.501 C11.725,0.471 11.932,0.464959182 11.932,0.464959182 L12.146,0.464959182 C12.146,0.464959182 12.566,0.452 12.539,0.89 C12.529,1.021 12.543,1.145 12.445,1.255 C12.347,1.363 12.194,1.402 12.039,1.389 L10.513,1.204 M11.508,5.58 L11.508,3.417 C11.508,3.417 11.543,2.899 12.15,2.869 C12.756,2.839 12.963,2.832 12.963,2.832 L13.177,2.832 C13.177,2.832 13.598,2.819 13.569,3.257 C13.561,3.389 13.574,3.513 13.476,3.623 C13.378,3.731 13.226,3.769 13.07,3.756 L11.543,3.571" id="Shape"></path>
            </g>
        </g>
    </g>
</svg>