<svg xmlns="http://www.w3.org/2000/svg" width="13" height="14" viewBox="0 0 13 14">
    <g fill="none" fill-rule="evenodd" stroke="#00C784">
        <path stroke-linejoin="round" d="M5 5.641v6.457V2.436c0-.446.046-.608.134-.77.087-.164.215-.291.378-.379.163-.087.324-.133.77-.133h4.936c.446 0 .607.046.77.133.163.088.291.215.378.378.088.163.134.325.134.77v3.206c0 .446-.046.608-.134.77-.087.163-.215.291-.378.379-.163.087-.324.133-.77.133H6.282c-.446 0-.607-.046-.77-.133-.163-.088-.291-.216-.378-.379C5.046 6.25 5 6.087 5 5.641z"/>
        <ellipse cx="5" cy="11.538" rx="3.75" ry="1.154"/>
    </g>
</svg>
