<svg xmlns="http://www.w3.org/2000/svg" xmlns:xlink="http://www.w3.org/1999/xlink" width="36" height="36" viewBox="0 0 36 36">
    <defs>
        <path id="a" d="M0 .998h36V37H0z"/>
    </defs>
    <g fill="none" fill-rule="evenodd">
        <path fill="#FFF" d="M31.613 18.726c0 7.053-5.717 12.77-12.77 12.77-7.052 0-12.769-5.717-12.769-12.77 0-7.052 5.717-12.77 12.77-12.77 7.052 0 12.77 5.718 12.77 12.77"/>
        <g transform="translate(0 -.998)">
            <mask id="b" fill="#fff">
                <use xlink:href="#a"/>
            </mask>
            <path fill="#3B5998" d="M22.048 16.633h2.22v3.694H19.828v11.041h-4.275v-11.04h-3.82V16.632h3.82V15.3c0-1.448.04-1.896.232-2.556.523-1.8 1.918-3.25 3.557-3.686.598-.162.855-.175 2.968-.183l1.96-.004-.01 1.96-.011 1.963-1.91.02c-2.158.025-2.025 0-2.258.365-.236.378-.253.507-.253 2.051v1.403h2.22zm12.166-5.458a18.104 18.104 0 0 0-8.39-8.389 17.974 17.974 0 0 0-8.906-1.756 18.045 18.045 0 0 0-6.716 1.744A18.042 18.042 0 0 0 .36 15.408a18.028 18.028 0 0 0 1.427 11.415A18.027 18.027 0 0 0 14.41 36.64c3.857.784 7.887.277 11.415-1.428a18.113 18.113 0 0 0 8.389-8.389 17.875 17.875 0 0 0 1.635-5.496 17.987 17.987 0 0 0-1.635-10.152z" mask="url(#b)"/>
        </g>
    </g>
</svg>
