<svg xmlns="http://www.w3.org/2000/svg" xmlns:xlink="http://www.w3.org/1999/xlink" width="36" height="36" viewBox="0 0 36 36">
    <defs>
        <path id="a" d="M0 .998h36V37H0z"/>
    </defs>
    <g fill="none" fill-rule="evenodd">
        <g transform="translate(0 -.998)">
            <mask id="b" fill="#fff">
                <use xlink:href="#a"/>
            </mask>
            <path fill="#10B111" d="M35.058 13.232c-.498-1.481-1.332-3.142-2.262-4.486-2.213-3.188-5.479-5.633-9.152-6.84a18.07 18.07 0 0 0-6.786-.872A17.963 17.963 0 0 0 6.773 4.936a18.093 18.093 0 0 0-5.869 8.42 18.091 18.091 0 0 0 .357 12.286c.266.676.901 1.959 1.287 2.598a18.162 18.162 0 0 0 6.213 6.213 22.78 22.78 0 0 0 2.598 1.286 18.121 18.121 0 0 0 13.282 0 22.78 22.78 0 0 0 2.598-1.286 18.18 18.18 0 0 0 6.213-6.213 23.117 23.117 0 0 0 1.286-2.598 18.122 18.122 0 0 0 .32-12.41" mask="url(#b)"/>
        </g>
        <path fill="#FFF" d="M29.613 17.093c0-5.277-5.291-9.57-11.794-9.57s-11.794 4.293-11.794 9.57c0 4.731 4.195 8.693 9.863 9.442.385.083.907.254 1.039.582.12.298.078.766.039 1.067l-.169 1.01c-.051.297-.237 1.165 1.022.635 1.258-.53 6.792-4 9.266-6.847 1.709-1.875 2.528-3.777 2.528-5.889"/>
        <path fill="#00B900" d="M15.423 14.543h-.827a.23.23 0 0 0-.23.23v5.138c0 .127.103.23.23.23h.827a.23.23 0 0 0 .229-.23v-5.139a.229.229 0 0 0-.23-.229M21.116 14.543h-.827a.23.23 0 0 0-.23.23v3.052l-2.355-3.18a.13.13 0 0 0-.018-.023v-.002l-.015-.014-.004-.004-.012-.01-.006-.005c-.005-.002-.008-.005-.012-.008l-.007-.004-.013-.007-.007-.004a.07.07 0 0 1-.013-.005l-.007-.003c-.005 0-.01-.003-.014-.004-.002 0-.005 0-.008-.002-.005 0-.009-.002-.013-.003-.003 0-.007 0-.01-.002h-.012c-.004-.002-.008-.002-.012-.002h-.835a.23.23 0 0 0-.23.23v5.138c0 .127.103.23.23.23h.827a.23.23 0 0 0 .23-.23V16.86l2.358 3.184a.224.224 0 0 0 .058.057l.002.002.015.01.006.002a.11.11 0 0 0 .011.006l.011.004.007.003.016.005.003.001a.227.227 0 0 0 .06.008h.826a.23.23 0 0 0 .23-.23v-5.139a.23.23 0 0 0-.23-.229M13.428 18.854H11.18v-4.081a.23.23 0 0 0-.23-.23h-.826a.23.23 0 0 0-.23.23v5.138c0 .062.024.118.065.159 0 0 0 .003.002.004.002 0 .002.002.003.003.043.04.098.064.16.064h3.304a.23.23 0 0 0 .23-.23v-.827a.23.23 0 0 0-.23-.23M25.685 15.83a.23.23 0 0 0 .23-.23v-.827a.23.23 0 0 0-.23-.23H22.38a.23.23 0 0 0-.16.065l-.002.003a.228.228 0 0 0-.068.162v5.138a.23.23 0 0 0 .064.159l.004.004.003.003a.23.23 0 0 0 .158.064h3.306a.23.23 0 0 0 .23-.23v-.827a.23.23 0 0 0-.23-.23h-2.248v-.87h2.248a.229.229 0 0 0 .23-.228v-.827a.23.23 0 0 0-.23-.23h-2.248v-.87h2.248z"/>
    </g>
</svg>
