<svg xmlns="http://www.w3.org/2000/svg" xmlns:xlink="http://www.w3.org/1999/xlink" width="36" height="36" viewBox="0 0 36 36">
    <defs>
        <path id="a" d="M16.859 1.034A17.966 17.966 0 0 0 6.773 4.936a18.09 18.09 0 0 0-5.869 8.42 18.097 18.097 0 0 0 .358 12.285c.265.677.901 1.959 1.286 2.598a18.168 18.168 0 0 0 6.214 6.214 22.865 22.865 0 0 0 2.598 1.286 18.118 18.118 0 0 0 13.281 0 22.947 22.947 0 0 0 2.598-1.286 18.174 18.174 0 0 0 6.213-6.214 22.947 22.947 0 0 0 1.286-2.598A18.168 18.168 0 0 0 36 19.092v-.177a18.223 18.223 0 0 0-.941-5.683 18.95 18.95 0 0 0-2.262-4.487c-2.213-3.187-5.479-5.632-9.152-6.84a18.077 18.077 0 0 0-5.652-.907c-.379 0-.757.012-1.134.036"/>
        <path id="c" d="M.853.303c-.72.002-.718 1.202.001 1.2h1.228s.007 3.346.001 4.13c.001.574 1.275.569 1.273-.003l.006-4.125h1.221c.762.001.763-1.202 0-1.202H.853z"/>
        <linearGradient id="d" x1=".005%" x2="100.004%" y1="49.996%" y2="49.996%">
            <stop offset="0%" stop-color="#FAE100"/>
            <stop offset="100%" stop-color="#E4DD49"/>
        </linearGradient>
        <path id="f" d="M1.961.671C1.658 1.336.568 4.475.207 5.308c-.262.602.866 1.092 1.127.491l.246-.859h2.245s-.077.035.221.822c.241.636 1.407.195 1.166-.442-.345-.909-1.538-4.185-1.755-4.649-.101-.215-.46-.368-.808-.368-.288 0-.569.105-.688.368zm.765 1.002l.682 2.138H1.985l.741-2.138z"/>
        <linearGradient id="g" x1="-.01%" x2="99.987%" y1="49.997%" y2="49.997%">
            <stop offset="0%" stop-color="#FAE100"/>
            <stop offset="100%" stop-color="#E4DD49"/>
        </linearGradient>
        <path id="i" d="M.641.867l.006 4.505s-.098.684.488.684c.585 0 1.885-.006 2.462-.006.576 0 .574-1.227-.003-1.227-.576 0-1.628-.006-1.628-.006s.004-3.18.002-3.953c-.001-.373-.332-.56-.663-.56C.973.304.64.492.641.867"/>
        <linearGradient id="j" x1="-.009%" x2="99.997%" y1="50.003%" y2="50.003%">
            <stop offset="0%" stop-color="#FAE100" stop-opacity=".986"/>
            <stop offset="100%" stop-color="#E4DD49"/>
        </linearGradient>
        <path id="l" d="M.327.698C.34 1.166.312 5.396.312 5.71c.001.494 1.261.493 1.26-.001V4.045l.37-.297 1.617 2.206c.327.432 1.356-.348 1.029-.779L2.87 2.914s1.166-1.261 1.625-1.718C4.764.93 3.934.094 3.665.36L1.58 2.447s.016-1.148-.001-1.783C1.573.423 1.277.307.975.307.651.307.32.44.327.698"/>
        <linearGradient id="m" x1=".01%" x2="99.986%" y1="49.997%" y2="49.997%">
            <stop offset="0%" stop-color="#FAE100"/>
            <stop offset="100%" stop-color="#E4DD49"/>
        </linearGradient>
    </defs>
    <g fill="none" fill-rule="evenodd">
        <g transform="translate(0 -.998)">
            <mask id="b" fill="#fff">
                <use xlink:href="#a"/>
            </mask>
            <path fill="#FAE100" d="M6.773 4.936a18.09 18.09 0 0 0-5.869 8.42 18.097 18.097 0 0 0 .358 12.285c.265.677.901 1.959 1.286 2.598a18.168 18.168 0 0 0 6.214 6.214 22.865 22.865 0 0 0 2.598 1.286 18.118 18.118 0 0 0 13.281 0 22.947 22.947 0 0 0 2.598-1.286 18.174 18.174 0 0 0 6.213-6.214 22.947 22.947 0 0 0 1.286-2.598A18.168 18.168 0 0 0 36 19.092v-.177a18.223 18.223 0 0 0-.941-5.683 18.95 18.95 0 0 0-2.262-4.487c-2.213-3.187-5.479-5.632-9.152-6.84a18.077 18.077 0 0 0-6.786-.871A17.966 17.966 0 0 0 6.773 4.936z" mask="url(#b)"/>
        </g>
        <path fill="#FFF" d="M18 8.027c-6.5 0-11.769 4.166-11.769 9.304 0 3.344 2.232 6.276 5.583 7.916a553.15 553.15 0 0 0-1.02 3.844c-.16.641.234.632.493.46.202-.135 3.224-2.19 4.528-3.077.708.105 1.438.161 2.185.161 6.5 0 11.77-4.166 11.77-9.304S24.5 8.027 18 8.027"/>
        <g transform="translate(9 15.002)">
            <mask id="e" fill="#fff">
                <use xlink:href="#c"/>
            </mask>
            <path fill="url(#d)" d="M.853.303c-.72.002-.718 1.202.001 1.2h1.228s.007 3.346.001 4.13c.001.574 1.275.569 1.273-.003l.006-4.125h1.221c.762.001.763-1.202 0-1.202H.853z" mask="url(#e)"/>
        </g>
        <g transform="translate(13 15.002)">
            <mask id="h" fill="#fff">
                <use xlink:href="#f"/>
            </mask>
            <path fill="url(#g)" d="M1.961.671C1.658 1.336.568 4.475.207 5.308c-.262.602.866 1.092 1.127.491l.246-.859h2.245s-.077.035.221.822c.241.636 1.407.195 1.166-.442-.345-.909-1.538-4.185-1.755-4.649-.101-.215-.46-.368-.808-.368-.288 0-.569.105-.688.368zm.765 1.002l.682 2.138H1.985l.741-2.138z" mask="url(#h)"/>
        </g>
        <g transform="translate(18 15.002)">
            <mask id="k" fill="#fff">
                <use xlink:href="#i"/>
            </mask>
            <path fill="url(#j)" d="M.641.867l.006 4.505s-.098.684.488.684c.585 0 1.885-.006 2.462-.006.576 0 .574-1.227-.003-1.227-.576 0-1.628-.006-1.628-.006s.004-3.18.002-3.953c-.001-.373-.332-.56-.663-.56C.973.304.64.492.641.867" mask="url(#k)"/>
        </g>
        <g transform="translate(22 15.002)">
            <mask id="n" fill="#fff">
                <use xlink:href="#l"/>
            </mask>
            <path fill="url(#m)" d="M.327.698C.34 1.166.312 5.396.312 5.71c.001.494 1.261.493 1.26-.001V4.045l.37-.297 1.617 2.206c.327.432 1.356-.348 1.029-.779L2.87 2.914s1.166-1.261 1.625-1.718C4.764.93 3.934.094 3.665.36L1.58 2.447s.016-1.148-.001-1.783C1.573.423 1.277.307.975.307.651.307.32.44.327.698" mask="url(#n)"/>
        </g>
    </g>
</svg>
