<svg xmlns="http://www.w3.org/2000/svg" xmlns:xlink="http://www.w3.org/1999/xlink" width="36" height="36" viewBox="0 0 36 36">
    <defs>
        <path id="a" d="M0 .998h36V37H0z"/>
    </defs>
    <g fill="none" fill-rule="evenodd">
        <path fill="#FFF" d="M33.997 18.726c0 8.369-6.785 15.154-15.154 15.154-8.37 0-15.153-6.785-15.153-15.154 0-8.37 6.784-15.153 15.153-15.153s15.154 6.784 15.154 15.153"/>
        <g transform="translate(0 -.998)">
            <mask id="b" fill="#fff">
                <use xlink:href="#a"/>
            </mask>
            <path fill="#00ACED" d="M23.89 10.845c.892.146 1.655.523 2.365 1.166.261.238.232.232.93.034.568-.162 1.2-.402 1.81-.69.236-.107.44-.19.452-.178.053.055-.324.856-.586 1.245-.228.336-.73.835-1.104 1.091-.352.246-.377.242.453.063.394-.083 1.548-.444 1.843-.572.091-.041-.05.183-.424.664-.282.366-1.237 1.307-1.573 1.556l-.253.187-.025.726c-.083 2.166-.415 3.703-1.195 5.479-.669 1.535-1.444 2.669-2.644 3.864-2.312 2.302-5.047 3.602-8.2 3.896-.586.054-2.13.054-2.683 0-1.585-.157-3.025-.548-4.386-1.187-.46-.215-1.096-.56-1.374-.747l-.14-.095.928.005c.955.003 1.45-.038 2.155-.178a9.451 9.451 0 0 0 2.448-.877c.386-.203 1.307-.793 1.35-.864.012-.02-.088-.044-.217-.061-1.548-.17-2.76-.904-3.58-2.166-.188-.282-.42-.773-.479-1.017-.029-.108-.025-.108.133-.072.365.084 1.797.014 1.797-.087 0-.017-.062-.045-.133-.058-.519-.104-1.332-.535-1.814-.963-.892-.791-1.398-1.663-1.602-2.75-.053-.313-.086-.919-.045-.919.008 0 .125.055.257.122.336.166.834.314 1.32.398.224.037.411.062.42.053.007-.008-.134-.133-.316-.273-1.046-.835-1.63-2.005-1.685-3.375-.029-.689.025-1.112.215-1.684.133-.4.37-.926.415-.926.013 0 .083.07.158.154 1.316 1.527 2.673 2.619 4.213 3.395a12.489 12.489 0 0 0 4.877 1.294c.481.025.498.025.47-.053-.117-.296-.15-1.216-.068-1.748.145-.921.552-1.714 1.241-2.432.74-.769 1.607-1.245 2.54-1.399.171-.024.337-.053.37-.063.195-.037 1.03-.012 1.365.042m-7.03-9.812A17.977 17.977 0 0 0 6.772 4.937a18.098 18.098 0 0 0-5.869 8.42 18.091 18.091 0 0 0 .357 12.286c.266.677.901 1.959 1.287 2.598a18.145 18.145 0 0 0 6.213 6.213 22.956 22.956 0 0 0 2.598 1.286 18.118 18.118 0 0 0 13.281 0 22.97 22.97 0 0 0 2.6-1.286 18.162 18.162 0 0 0 6.212-6.214 23.125 23.125 0 0 0 1.287-2.598 18.128 18.128 0 0 0 .32-12.41c-.499-1.48-1.333-3.14-2.263-4.486-2.212-3.187-5.479-5.631-9.152-6.84a18.072 18.072 0 0 0-6.786-.871" mask="url(#b)"/>
        </g>
    </g>
</svg>
