<svg xmlns="http://www.w3.org/2000/svg" xmlns:xlink="http://www.w3.org/1999/xlink" width="70" height="41" viewBox="0 0 70 41">
    <defs>
        <path id="2yo1b46eja" d="M0.117 0.945L21 0.945 21 30.147 0.117 30.147z"/>
        <path id="vzmlgl1ljc" d="M0 0.945L20.895 0.945 20.895 34.167 0 34.167z"/>
    </defs>
    <g fill="none" fill-rule="evenodd">
        <g transform="translate(49 6.264)">
            <mask id="k1e7zvyj2b" fill="#fff">
                <use xlink:href="#2yo1b46eja"/>
            </mask>
            <path fill="#000" d="M11.088 16.176c-3.275.32-6.017-2.358-5.69-5.556.243-2.368 2.204-4.282 4.63-4.518 3.276-.32 6.02 2.358 5.69 5.557-.243 2.367-2.205 4.28-4.63 4.517M10.828.948C8.732.897 6.77 1.452 5.111 2.447v-.634c0-.13-.108-.234-.24-.234H.357c-.133 0-.24.105-.24.234v28.099c0 .13.107.235.24.235H4.87c.133 0 .241-.105.241-.235V19.83c1.587.952 3.453 1.501 5.447 1.501 5.764 0 10.452-4.582 10.442-10.212C20.99 5.64 16.44 1.09 10.828.95" mask="url(#k1e7zvyj2b)"/>
        </g>
        <path fill="#000" d="M42.227 27.606h4.525c.133 0 .241-.105.241-.234V8.088c0-.13-.108-.235-.241-.235h-4.525c-.133 0-.241.106-.241.235v19.284c0 .129.108.234.241.234M42.422 6.078l5.349-2.766c.21-.108.21-.403 0-.512L42.42.034c-.196-.103-.435.038-.435.256v5.533c0 .217.239.358.436.255"/>
        <path fill="#00C784" d="M6.769 34.82c-.525-.856-.959-1.775-1.292-2.682-.034-.093-.123-.154-.224-.154H.336c-.167 0-.284.16-.227.314.774 2.06 2.059 4.93 3.581 6.15 1.078.686 2.27 1.07 3.525 1.07 1.214 0 2.368-.357 3.417-1-1.544-.668-2.864-2.07-3.863-3.698"/>
        <path fill="#000" d="M40.047 8.504l-.083-.05C38.23 7.439 36.248 6.9 34.214 6.9c-2.282 0-4.413.684-6.192 1.85v-.654c0-.13-.108-.235-.24-.235h-4.527c-.132 0-.24.105-.24.235v19.277c0 .13.108.235.24.235h4.526c.133 0 .241-.106.241-.235v-9.41c0-3 2.188-5.642 5.225-6.103 1.443-.22 2.887.062 4.115.773l.078.043c.04.016.081.024.126.024.108 0 .203-.05.265-.126l.05-.078 2.23-3.537.022-.036c.026-.047.043-.101.043-.16 0-.105-.05-.198-.129-.258"/>
        <g transform="translate(0 6.264)">
            <mask id="0cm2q2jgpd" fill="#fff">
                <use xlink:href="#vzmlgl1ljc"/>
            </mask>
            <path fill="#000" d="M15.601 11.659c-.244 2.367-2.205 4.28-4.63 4.517-3.276.32-6.017-2.359-5.69-5.556.243-2.368 2.204-4.281 4.629-4.518 3.277-.32 6.02 2.358 5.691 5.557zm5.294 7.691l-.002-.399-.001-2.235v-2.59l-.001-2.754V6.145l-.001-2.091V1.852c0-.13-.108-.234-.241-.234h-4.513c-.133 0-.24.104-.24.234v.599c-1.659-.996-3.623-1.553-5.72-1.503C4.562 1.085.01 5.638 0 11.12c-.01 5.629 4.678 10.211 10.441 10.211 1.998 0 3.867-.55 5.455-1.505 0 1.632-.029 3.226-.375 4.834-.309 1.438-.759 2.846-1.562 4.1-.579.894-1.244 1.777-2.032 2.506-.409.38-.843.71-1.295.988-1.049.643-2.203 1-3.416 1-1.256 0-2.448-.383-3.526-1.07.568.448 1.172.84 1.806 1.18.359.142.727.27 1.104.375l.028.007c.34.095.686.174 1.038.238l.151.026c.096.016.19.031.286.044.093.013.186.024.279.035.104.012.208.022.312.032.11.01.22.018.329.025l.18.008c.157.007.315.012.474.012l.026.001c.19 0 .379-.005.567-.015h.012c.182-.01.363-.023.544-.04.149-.015.296-.035.443-.055l.097-.013c1.216-.18 2.399-.554 3.49-1.11 1.072-.547 2.052-1.263 2.892-2.113.512-.519.971-1.087 1.37-1.692 1.912-3.153 1.772-7.49 1.772-7.49l.005.022v-2.31z" mask="url(#0cm2q2jgpd)"/>
        </g>
    </g>
</svg>
