<svg xmlns="http://www.w3.org/2000/svg" width="30" height="21" viewBox="0 0 30 21">
    <g fill="none" fill-rule="evenodd">
        <path fill="#FFF" d="M7.638 16.323L1.1 18.276c-.27.08-.542-.123-.542-.406V2.99c0-.188.123-.353.301-.407L7.64.56v15.764z" transform="translate(1 1)"/>
        <path stroke="#00C784" stroke-linecap="round" stroke-linejoin="round" stroke-width="1.6" d="M7.638 16.323L1.1 18.276c-.27.08-.542-.123-.542-.406V2.99c0-.188.123-.353.301-.407L7.64.56v15.764z" transform="translate(1 1)"/>
        <path fill="#FFF" d="M14.719 18.438L7.638 16.323 7.638 0.559 14.719 2.674z" transform="translate(1 1)"/>
        <path stroke="#00C784" stroke-linecap="round" stroke-linejoin="round" stroke-width="1.6" d="M14.719 18.438L7.638 16.323 7.638 0.559 14.719 2.674z" transform="translate(1 1)"/>
        <path fill="#FFF" d="M21.497 16.413l-6.779 2.025V2.673L21.256.721c.27-.08.543.122.543.405v14.88c0 .188-.123.354-.302.407" transform="translate(1 1)"/>
        <path stroke="#00C784" stroke-linecap="round" stroke-linejoin="round" stroke-width="1.6" d="M21.497 16.413l-6.779 2.025V2.673L21.256.721c.27-.08.543.122.543.405v14.88c0 .188-.123.354-.302.407z" transform="translate(1 1)"/>
        <g transform="translate(1 1) translate(17.301 5.182)">
            <ellipse cx="4.123" cy="4.491" fill="#FFF" rx="4.123" ry="3.742"/>
            <path fill="#00C784" d="M6.619 6.608c-.567.565-1.32.877-2.12.877-.802 0-1.555-.312-2.121-.877-.567-.566-.879-1.317-.879-2.117s.312-1.552.879-2.117c.566-.566 1.32-.877 2.12-.877.801 0 1.554.311 2.12.877.567.565.88 1.317.88 2.117s-.313 1.551-.88 2.117m4.395 3.262l-2.82-2.815c.522-.747.805-1.634.805-2.564 0-1.2-.468-2.327-1.318-3.175C6.83.467 5.7 0 4.499 0 3.297 0 2.167.467 1.318 1.316.468 2.164 0 3.292 0 4.49c0 1.2.468 2.328 1.318 3.176.85.849 1.98 1.316 3.18 1.316.932 0 1.82-.282 2.568-.803l2.82 2.815c.31.31.817.31 1.127 0 .31-.31.31-.816 0-1.125"/>
        </g>
    </g>
</svg>
