<svg xmlns="http://www.w3.org/2000/svg" xmlns:xlink="http://www.w3.org/1999/xlink" width="19" height="14" viewBox="0 0 19 14">
    <defs>
        <path id="qr4aqv3f4a" d="M0.001 0.21L15.881 0.21 15.881 12 0.001 12z"/>
    </defs>
    <g fill="none" fill-rule="evenodd">
        <g transform="translate(2 .79)">
            <mask id="vze6rx6dzb" fill="#fff">
                <use xlink:href="#qr4aqv3f4a"/>
            </mask>
            <path fill="#FFF" d="M7.94 10.652c-1.898 0-3.437-1.539-3.437-3.438 0-1.899 1.539-3.439 3.438-3.439 1.898 0 3.438 1.54 3.438 3.44 0 1.898-1.54 3.437-3.438 3.437m7.04-8.703h-3.67L10.98.635C10.939.39 10.727.21 10.477.21H5.404c-.25 0-.462.18-.502.425L4.569 1.95H.899c-.496 0-.898.402-.898.9v8.144C0 11.55.45 12 1.007 12h13.975c.497 0 .899-.403.899-.9V2.848c0-.497-.402-.899-.9-.899" mask="url(#vze6rx6dzb)"/>
        </g>
        <path fill="#FFF" d="M12.053 8.004c0 1.167-.946 2.113-2.113 2.113s-2.113-.946-2.113-2.113.946-2.112 2.113-2.112 2.113.945 2.113 2.112"/>
    </g>
</svg>
