<svg xmlns="http://www.w3.org/2000/svg" width="14" height="14" viewBox="0 0 14 14">
    <path fill="#B7B7B7" fill-rule="evenodd" d="M7.975 7.975C7.314 8.635 6.435 9 5.5 9s-1.814-.364-2.475-1.025C2.365 7.314 2 6.435 2 5.5s.364-1.814 1.025-2.475C3.686 2.365 4.565 2 5.5 2s1.814.364 2.475 1.025C8.635 3.686 9 4.565 9 5.5s-.364 1.814-1.025 2.475m5.736 4.332L10.2 8.797C10.85 7.865 11.2 6.76 11.2 5.6c0-1.496-.582-2.903-1.64-3.96C8.503.582 7.097 0 5.6 0S2.698.583 1.64 1.64C.582 2.698 0 4.105 0 5.6c0 1.497.583 2.903 1.64 3.96 1.058 1.059 2.465 1.641 3.96 1.641 1.16 0 2.265-.351 3.197-1.001l3.51 3.51c.386.386 1.018.386 1.404 0 .385-.385.385-1.017 0-1.403"/>
</svg>
