<svg xmlns="http://www.w3.org/2000/svg" xmlns:xlink="http://www.w3.org/1999/xlink" width="34" height="35" viewBox="0 0 34 35">
    <defs>
        <path id="viqz159ncc" d="M0.096 0.173L4.745 0.173 4.745 4.823 0.096 4.823z"/>
        <path id="fggpmmeode" d="M0.096 0.589L4.745 0.589 4.745 5.238 0.096 5.238z"/>
        <path id="8c2uye5j6g" d="M0 0.218L4.651 0.218 4.651 4.869 0 4.869z"/>
        <filter id="0zf3flfsqa" width="135.4%" height="135.4%" x="-15.9%" y="-14.1%" filterUnits="objectBoundingBox">
            <feOffset dx=".5" dy="1" in="SourceAlpha" result="shadowOffsetOuter1"/>
            <feGaussianBlur in="shadowOffsetOuter1" result="shadowBlurOuter1" stdDeviation="1.5"/>
            <feColorMatrix in="shadowBlurOuter1" values="0 0 0 0 0 0 0 0 0 0 0 0 0 0 0 0 0 0 0.12 0"/>
        </filter>
        <circle id="a5r5vue1bb" cx="17.143" cy="17.143" r="14.143"/>
    </defs>
    <g fill="none" fill-rule="evenodd" transform="translate(-.643 -.643)">
        <use fill="#000" filter="url(#0zf3flfsqa)" xlink:href="#a5r5vue1bb"/>
        <use fill="#FFF" xlink:href="#a5r5vue1bb"/>
        <path stroke="#00C784" d="M20.548 11.512L12.69 16.595 20.548 21.988"/>
        <g>
            <g transform="translate(10.071 8.893) translate(8.643)">
                <mask id="ns9c7wpbxd" fill="#fff">
                    <use xlink:href="#viqz159ncc"/>
                </mask>
                <path fill="#00C784" d="M4.745 2.497c0 1.284-1.04 2.326-2.326 2.326-1.283 0-2.323-1.042-2.323-2.326 0-1.283 1.04-2.325 2.323-2.325 1.286 0 2.326 1.042 2.326 2.325" mask="url(#ns9c7wpbxd)"/>
            </g>
            <g transform="translate(10.071 8.893) translate(8.643 10.476)">
                <mask id="spl88fp3hf" fill="#fff">
                    <use xlink:href="#fggpmmeode"/>
                </mask>
                <path fill="#00C784" d="M4.745 2.914c0 1.284-1.04 2.326-2.326 2.326C1.136 5.24.096 4.198.096 2.914.096 1.631 1.136.59 2.419.59c1.286 0 2.326 1.042 2.326 2.325" mask="url(#spl88fp3hf)"/>
            </g>
            <g transform="translate(10.071 8.893) translate(0 5.238)">
                <mask id="rceuduwwbh" fill="#fff">
                    <use xlink:href="#8c2uye5j6g"/>
                </mask>
                <path fill="#00C784" d="M4.65 2.543c0 1.284-1.04 2.326-2.325 2.326-1.283 0-2.326-1.042-2.326-2.326C0 1.26 1.042.218 2.325.218 3.61.218 4.65 1.26 4.65 2.543" mask="url(#rceuduwwbh)"/>
            </g>
        </g>
    </g>
</svg>
