<svg xmlns="http://www.w3.org/2000/svg" width="17" height="16" viewBox="0 0 17 16">
    <g fill="none" fill-rule="evenodd">
        <path fill="#00C784" d="M11.944 8.938c-.167.165-.243.403-.202.634l.684 3.844c.104.584-.507 1.034-1.034.76l-3.466-1.794c-.21-.109-.459-.107-.666.004l-3.445 1.838c-.523.279-1.14-.163-1.043-.749l.637-3.851c.038-.232-.04-.47-.21-.633L.387 6.285C-.041 5.872.189 5.15.776 5.061l3.86-.585c.233-.036.433-.183.536-.395L6.878.569C7.138.037 7.896.032 8.162.563l1.749 3.49c.105.21.308.356.541.388l3.867.537c.587.082.826.802.404 1.219l-2.779 2.742z" transform="translate(1 1)"/>
        <path stroke="#00C784" stroke-linecap="round" d="M14.723 6.196l-2.779 2.742c-.167.165-.243.403-.202.634l.684 3.844c.104.584-.507 1.034-1.034.76l-3.466-1.794c-.21-.109-.459-.107-.666.004l-3.445 1.838c-.523.279-1.14-.163-1.043-.749l.637-3.851c.038-.232-.04-.47-.21-.633L.387 6.285C-.041 5.872.189 5.15.776 5.061l3.86-.585c.233-.036.433-.183.536-.395L6.878.569C7.138.037 7.896.032 8.162.563l1.749 3.49c.105.21.308.356.541.388l3.867.537c.587.082.826.802.404 1.219z" transform="translate(1 1)"/>
    </g>
</svg>
