<svg xmlns="http://www.w3.org/2000/svg" width="7" height="14" viewBox="0 0 7 14">
    <g fill="none" fill-rule="evenodd">
        <g fill="#00C784">
            <g>
                <g>
                    <g>
                        <path d="M3.624 1.002L.25 7.022c-.08.145-.03.328.115.409.045.025.096.038.147.038h1.943v5.389c0 .165.135.3.3.3.109 0 .208-.059.262-.153l3.73-6.614c.082-.144.031-.327-.113-.409-.045-.025-.096-.038-.148-.038h-2.3V1.149c0-.166-.134-.3-.3-.3-.109 0-.209.059-.262.153z" transform="translate(-378 -3659) translate(-9 3093) translate(372 336) translate(15 230)"/>
                    </g>
                </g>
            </g>
        </g>
    </g>
</svg>
