<?xml version="1.0" encoding="utf-8"?>
<!-- Generator: Adobe Illustrator 22.0.1, SVG Export Plug-In . SVG Version: 6.00 Build 0)  -->
<svg version="1.1" id="레이어_1" xmlns="http://www.w3.org/2000/svg" xmlns:xlink="http://www.w3.org/1999/xlink" x="0px"
	 y="0px" viewBox="0 0 11 13" style="enable-background:new 0 0 11 13;" xml:space="preserve">
<style type="text/css">
	.st0{fill:#00C784;}
</style>
<g>
	<path class="st0" d="M9.9,4.4c-0.2-0.1-0.2-0.5,0-0.6c0,0,0.4-0.2,0.4-0.6c0-0.5-0.7-0.8-0.7-0.8C9.5,2.4,9.5,2.1,9.6,2
		c0,0,0.2-0.2,0.2-0.6c0-0.1-0.1-0.3-0.2-0.5C9.3,0.8,9.1,0.6,8.8,0.6h-6c-1.2,0-2.2,1-2.2,2.2v3c0,0.5,0.1,0.9,0.4,1.3L4.6,12
		c0.1,0.2,0.3,0.3,0.5,0.4c0.1,0,0.3,0,0.4-0.2c0.1-0.1,0.3-0.3,0.3-0.7c-0.3-1.2-0.9-2.3-1.4-3.5C4.2,7.9,4.3,7.6,4.5,7.6
		c0,0,3.3,0,4.4,0c0.6,0,0.8-0.4,0.8-0.6c0-0.3-0.1-0.8-0.1-0.8c0-0.1,0.1-0.3,0.2-0.4c0,0,0.5-0.2,0.5-0.7
		C10.4,4.7,9.9,4.4,9.9,4.4z"/>
	<path class="st0" d="M11,3.2c0-0.7-0.4-1-0.8-1.2c0.1-0.2,0.1-0.4,0.1-0.6c0-0.3-0.2-0.7-0.4-0.9C9.7,0.2,9.3,0,8.8,0h-6
		C1.3,0,0,1.3,0,2.9v3C0,6.4,0.2,7,0.5,7.5L4,12.4C4.2,12.7,4.5,13,5,13c0.3,0,0.6-0.1,0.8-0.4c0.2-0.2,0.4-0.6,0.4-1.1
		c-0.1-0.8-0.6-1.7-0.9-2.4C5.2,8.7,5.1,8.5,5,8.2c0.6,0,3,0,3.9,0h0c0.9,0,1.4-0.6,1.4-1.2c0-0.3-0.1-0.5-0.1-0.7
		C10.6,6.2,11,5.9,11,5.2c0-0.5-0.2-0.8-0.4-1C10.8,4,11,3.7,11,3.2z M9.9,5.8c-0.1,0-0.2,0.2-0.2,0.4c0,0,0.1,0.5,0.1,0.8
		c0,0.2-0.2,0.6-0.8,0.6c-1.1,0-4.4,0-4.4,0c-0.2,0-0.4,0.3-0.3,0.5c0.5,1.2,1.1,2.3,1.4,3.5c0,0.4-0.1,0.5-0.3,0.7
		c-0.1,0.1-0.3,0.2-0.4,0.2c-0.2,0-0.4-0.1-0.5-0.4L1,7.1C0.8,6.8,0.6,6.3,0.6,5.8v-3c0-1.2,1-2.2,2.2-2.2h6c0.3,0,0.5,0.1,0.7,0.3
		c0.2,0.2,0.2,0.4,0.2,0.5C9.7,1.7,9.6,2,9.6,2c-0.1,0.2,0,0.4,0.1,0.5c0,0,0.7,0.3,0.7,0.8c0,0.5-0.4,0.6-0.4,0.6
		c-0.2,0.1-0.2,0.5,0,0.6c0,0,0.5,0.3,0.5,0.8C10.4,5.7,9.9,5.8,9.9,5.8z"/>
</g>
</svg>
