<?xml version="1.0" encoding="utf-8"?>
<!-- Generator: Adobe Illustrator 22.0.1, SVG Export Plug-In . SVG Version: 6.00 Build 0)  -->
<svg version="1.1" id="레이어_1" xmlns="http://www.w3.org/2000/svg" xmlns:xlink="http://www.w3.org/1999/xlink" x="0px"
	 y="0px" viewBox="0 0 11 13" style="enable-background:new 0 0 11 13;" xml:space="preserve">
<style type="text/css">
	.st0{fill:#00C784;}
</style>
<g>
	<path class="st0" d="M10.4,7.8c0-0.5-0.5-0.7-0.5-0.7c-0.1,0-0.2-0.2-0.2-0.4c0,0,0.1-0.5,0.1-0.8c0-0.2-0.2-0.6-0.8-0.6
		c-1.1,0-4.4,0-4.4,0c-0.2,0-0.4-0.3-0.3-0.5c0.5-1.2,1.1-2.3,1.4-3.5c0-0.4-0.1-0.5-0.3-0.7C5.3,0.7,5.1,0.6,5,0.6
		C4.9,0.7,4.7,0.8,4.6,1L1,5.9C0.8,6.2,0.6,6.7,0.6,7.2v3c0,1.2,1,2.2,2.2,2.2h6c0.3,0,0.5-0.1,0.7-0.3c0.2-0.2,0.2-0.4,0.2-0.5
		c0-0.4-0.2-0.6-0.2-0.6c-0.1-0.2,0-0.4,0.1-0.5c0,0,0.7-0.3,0.7-0.8c0-0.5-0.4-0.6-0.4-0.6c-0.2-0.1-0.2-0.5,0-0.6
		C9.9,8.6,10.4,8.3,10.4,7.8z"/>
	<path class="st0" d="M11,7.8c0-0.7-0.4-1-0.7-1.1c0-0.2,0.1-0.4,0.1-0.7c0-0.6-0.6-1.2-1.4-1.2h0c-1,0-3.3,0-3.9,0
		c0.1-0.2,0.2-0.4,0.4-0.8c0.3-0.7,0.8-1.7,0.9-2.4c0-0.5-0.2-0.9-0.4-1.1C5.6,0.1,5.3,0,5,0C4.5,0,4.2,0.3,4,0.6L0.5,5.5
		C0.2,6,0,6.6,0,7.2v3C0,11.7,1.3,13,2.8,13h6c0.5,0,0.9-0.2,1.1-0.5c0.3-0.3,0.4-0.6,0.4-0.9c0-0.3-0.1-0.5-0.1-0.6
		c0.3-0.2,0.8-0.5,0.8-1.2c0-0.5-0.2-0.7-0.4-0.9C10.8,8.6,11,8.3,11,7.8z M9.9,9.1c0,0,0.4,0.2,0.4,0.6c0,0.5-0.7,0.8-0.7,0.8
		c-0.2,0-0.3,0.3-0.1,0.5c0,0,0.2,0.2,0.2,0.6c0,0.1-0.1,0.3-0.2,0.5c-0.2,0.1-0.4,0.3-0.7,0.3h-6c-1.2,0-2.2-1-2.2-2.2v-3
		c0-0.5,0.1-0.9,0.4-1.3L4.6,1C4.7,0.8,4.9,0.7,5,0.6c0.1,0,0.3,0,0.4,0.2C5.5,1,5.7,1.1,5.7,1.5C5.4,2.7,4.8,3.8,4.2,4.9
		C4.2,5.1,4.3,5.4,4.5,5.4c0,0,3.3,0,4.4,0c0.6,0,0.8,0.4,0.8,0.6c0,0.3-0.1,0.8-0.1,0.8c0,0.1,0.1,0.3,0.2,0.4c0,0,0.5,0.2,0.5,0.7
		c0,0.5-0.5,0.8-0.5,0.8C9.7,8.7,9.7,9.1,9.9,9.1z"/>
</g>
</svg>
